{
  "accessors": [
    {
      "bufferView": 2,
      "componentType": 5126,
      "count": 65533,
      "max": [
        113.78277587890625,
        167.71377563476563,
        269.4940185546875
      ],
      "min": [
        -113.78277587890625,
        -6.670549800458919e-14,
        -266.991943359375
      ],
      "type": "VEC3"
    },
    {
      "bufferView": 2,
      "byteOffset": 786396,
      "componentType": 5126,
      "count": 65533,
      "max": [
        1.0,
        1.0,
        1.0
      ],
      "min": [
        -1.0,
        -1.0,
        -1.0
      ],
      "type": "VEC3"
    },
    {
      "bufferView": 1,
      "componentType": 5126,
      "count": 65533,
      "max": [
        0.9951995611190796,
        0.9949724078178406
      ],
      "min": [
        0.005534971132874489,
        0.005867123603820801
      ],
      "type": "VEC2"
    },
    {
      "bufferView": 1,
      "byteOffset": 524264,
      "componentType": 5126,
      "count": 65533,
      "max": [
        0.9951995611190796,
        0.9949724078178406
      ],
      "min": [
        0.005534971132874489,
        0.005867123603820801
      ],
      "type": "VEC2"
    },
    {
      "bufferView": 1,
      "byteOffset": 1048528,
      "componentType": 5126,
      "count": 65533,
      "max": [
        0.9951995611190796,
        0.9949724078178406
      ],
      "min": [
        0.005534971132874489,
        0.005867123603820801
      ],
      "type": "VEC2"
    },
    {
      "bufferView": 0,
      "componentType": 5125,
      "count": 65577,
      "type": "SCALAR"
    },
    {
      "bufferView": 2,
      "byteOffset": 1572792,
      "componentType": 5126,
      "count": 23233,
      "max": [
        103.14663696289063,
        154.52752685546875,
        264.87261962890625
      ],
      "min": [
        -103.14663696289063,
        -6.670549800458919e-14,
        -269.4940185546875
      ],
      "type": "VEC3"
    },
    {
      "bufferView": 2,
      "byteOffset": 1851588,
      "componentType": 5126,
      "count": 23233,
      "max": [
        0.9999649524688721,
        1.0,
        0.999911367893219
      ],
      "min": [
        -0.9999649524688721,
        -1.0,
        -0.9999082684516907
      ],
      "type": "VEC3"
    },
    {
      "bufferView": 1,
      "byteOffset": 1572792,
      "componentType": 5126,
      "count": 23233,
      "max": [
        0.9930744767189026,
        0.9946836233139038
      ],
      "min": [
        0.005534971132874489,
        0.006459712982177734
      ],
      "type": "VEC2"
    },
    {
      "bufferView": 1,
      "byteOffset": 1758656,
      "componentType": 5126,
      "count": 23233,
      "max": [
        0.9930744767189026,
        0.9946836233139038
      ],
      "min": [
        0.005534971132874489,
        0.006459712982177734
      ],
      "type": "VEC2"
    },
    {
      "bufferView": 1,
      "byteOffset": 1944520,
      "componentType": 5126,
      "count": 23233,
      "max": [
        0.9930744767189026,
        0.9946836233139038
      ],
      "min": [
        0.005534971132874489,
        0.006459712982177734
      ],
      "type": "VEC2"
    },
    {
      "bufferView": 0,
      "byteOffset": 262308,
      "componentType": 5125,
      "count": 23241,
      "type": "SCALAR"
    },
    {
      "bufferView": 2,
      "byteOffset": 2130384,
      "componentType": 5126,
      "count": 354,
      "max": [
        92.5623550415039,
        75.63723754882813,
        256.36676025390625
      ],
      "min": [
        -92.5623550415039,
        63.196102142333984,
        211.9534912109375
      ],
      "type": "VEC3"
    },
    {
      "bufferView": 2,
      "byteOffset": 2134632,
      "componentType": 5126,
      "count": 354,
      "max": [
        0.9918481111526489,
        0.543535590171814,
        0.9537723064422607
      ],
      "min": [
        -0.9918481707572937,
        -0.057665903121232986,
        0.06561072915792465
      ],
      "type": "VEC3"
    },
    {
      "bufferView": 1,
      "byteOffset": 2130384,
      "componentType": 5126,
      "count": 354,
      "max": [
        0.674638032913208,
        0.5527721643447876
      ],
      "min": [
        0.41583532094955444,
        0.15742605924606323
      ],
      "type": "VEC2"
    },
    {
      "bufferView": 1,
      "byteOffset": 2133216,
      "componentType": 5126,
      "count": 354,
      "max": [
        0.674638032913208,
        0.5527721643447876
      ],
      "min": [
        0.41583532094955444,
        0.15742605924606323
      ],
      "type": "VEC2"
    },
    {
      "bufferView": 1,
      "byteOffset": 2136048,
      "componentType": 5126,
      "count": 354,
      "max": [
        0.674638032913208,
        0.5527721643447876
      ],
      "min": [
        0.41583532094955444,
        0.15742605924606323
      ],
      "type": "VEC2"
    },
    {
      "bufferView": 0,
      "byteOffset": 355272,
      "componentType": 5125,
      "count": 354,
      "type": "SCALAR"
    }
  ],
  "asset": {
    "extras": {
      "author": "dhiren-sah (https://sketchfab.com/dhiren-sah)",
      "license": "CC-BY-4.0 (http://creativecommons.org/licenses/by/4.0/)",
      "source": "https://sketchfab.com/3d-models/police-car-0de968b9c106444bb7031bcfecd53799",
      "title": "Police Car"
    },
    "generator": "Sketchfab-16.10.0",
    "version": "2.0"
  },
  "bufferViews": [
    {
      "buffer": 0,
      "byteLength": 356688,
      "name": "floatBufferViews",
      "target": 34963
    },
    {
      "buffer": 0,
      "byteLength": 2138880,
      "byteOffset": 356688,
      "byteStride": 8,
      "name": "floatBufferViews",
      "target": 34962
    },
    {
      "buffer": 0,
      "byteLength": 2138880,
      "byteOffset": 2495568,
      "byteStride": 12,
      "name": "floatBufferViews",
      "target": 34962
    }
  ],
  "buffers": [
    {
      "byteLength": 4634448,
      "uri": "scene.bin"
    }
  ],
  "extensionsRequired": [
    "KHR_materials_pbrSpecularGlossiness"
  ],
  "extensionsUsed": [
    "KHR_materials_pbrSpecularGlossiness"
  ],
  "images": [
    {
      "uri": "textures/material_0_diffuse.png"
    },
    {
      "uri": "textures/material_0_specularGlossiness.png"
    }
  ],
  "materials": [
    {
      "alphaMode": "MASK",
      "doubleSided": true,
      "extensions": {
        "KHR_materials_pbrSpecularGlossiness": {
          "diffuseFactor": [
            1.0,
            1.0,
            1.0,
            1.0
          ],
          "diffuseTexture": {
            "index": 0
          },
          "glossinessFactor": 1.0,
          "specularFactor": [
            1.0,
            1.0,
            1.0
          ],
          "specularGlossinessTexture": {
            "index": 1,
            "texCoord": 1
          }
        }
      },
      "name": "material_0"
    },
    {
      "alphaMode": "BLEND",
      "doubleSided": true,
      "extensions": {
        "KHR_materials_pbrSpecularGlossiness": {
          "diffuseFactor": [
            1.0,
            1.0,
            1.0,
            1.0
          ],
          "diffuseTexture": {
            "index": 0
          },
          "glossinessFactor": 1.0,
          "specularFactor": [
            1.0,
            1.0,
            1.0
          ],
          "specularGlossinessTexture": {
            "index": 1
          }
        }
      },
      "name": "material_1"
    }
  ],
  "meshes": [
    {
      "name": "Object_0",
      "primitives": [
        {
          "attributes": {
            "NORMAL": 1,
            "POSITION": 0,
            "TEXCOORD_0": 2,
            "TEXCOORD_1": 3,
            "TEXCOORD_2": 4
          },
          "indices": 5,
          "material": 0,
          "mode": 4
        }
      ]
    },
    {
      "name": "Object_1",
      "primitives": [
        {
          "attributes": {
            "NORMAL": 7,
            "POSITION": 6,
            "TEXCOORD_0": 8,
            "TEXCOORD_1": 9,
            "TEXCOORD_2": 10
          },
          "indices": 11,
          "material": 0,
          "mode": 4
        }
      ]
    },
    {
      "name": "Object_2",
      "primitives": [
        {
          "attributes": {
            "NORMAL": 13,
            "POSITION": 12,
            "TEXCOORD_0": 14,
            "TEXCOORD_1": 15,
            "TEXCOORD_2": 16
          },
          "indices": 17,
          "material": 1,
          "mode": 4
        }
      ]
    }
  ],
  "nodes": [
    {
      "children": [
        1
      ],
      "matrix": [
        1.0,
        0.0,
        0.0,
        0.0,
        0.0,
        2.220446049250313e-16,
        -1.0,
        0.0,
        0.0,
        1.0,
        2.220446049250313e-16,
        0.0,
        0.0,
        0.0,
        0.0,
        1.0
      ],
      "name": "Sketchfab_model"
    },
    {
      "children": [
        2
      ],
      "name": "root"
    },
    {
      "children": [
        3
      ],
      "matrix": [
        1.0,
        0.0,
        0.0,
        0.0,
        0.0,
        2.220446049250313e-16,
        1.0,
        0.0,
        0.0,
        -1.0,
        2.220446049250313e-16,
        0.0,
        0.0,
        0.0,
        0.0,
        1.0
      ],
      "name": "GLTF_SceneRootNode"
    },
    {
      "children": [
        4
      ],
      "matrix": [
        0.009999999776482582,
        0.0,
        0.0,
        0.0,
        0.0,
        0.009999999776482582,
        0.0,
        0.0,
        0.0,
        0.0,
        0.009999999776482582,
        0.0,
        0.0,
        0.0,
        0.0,
        1.0
      ],
      "name": "RootNode.0_0"
    },
    {
      "children": [
        5,
        8
      ],
      "name": "police_car.1_1"
    },
    {
      "children": [
        6,
        7
      ],
      "name": "_2"
    },
    {
      "mesh": 0,
      "name": "Object_6"
    },
    {
      "mesh": 1,
      "name": "Object_7"
    },
    {
      "children": [
        9
      ],
      "name": "_3"
    },
    {
      "mesh": 2,
      "name": "Object_9"
    }
  ],
  "samplers": [
    {
      "magFilter": 9729,
      "minFilter": 9987,
      "wrapS": 10497,
      "wrapT": 10497
    }
  ],
  "scene": 0,
  "scenes": [
    {
      "name": "Sketchfab_Scene",
      "nodes": [
        0
      ]
    }
  ],
  "textures": [
    {
      "sampler": 0,
      "source": 0
    },
    {
      "sampler": 0,
      "source": 1
    }
  ]
}
